PathFileType	4	(X/Y/Z)	7_coords_data.trc
DataRate	CameraRate	NumFrames	NumMarkers	Units	OrigDataRate	OrigDataStartFrame	OrigNumFrames
30.0	30.0	6	21	m	30.0	10	47
Frame#	Time	THUMB_TIP	THUMB_IP	THUMB_MCP	THUMB_CMC	INDEX_TIP	INDEX_DIP	INDEX_PIP	INDEX_MCP	MIDDLE_TIP	MIDDLE_DIP	MIDDLE_PIP	MIDDLE_MCP	RING_TIP	RING_DIP	RING_PIP	RING_MCP	PINKY_TIP	PINKY_DIP	PINKY_PIP	PINKY_MCP	WRIST
X1	Y1	Z1	X2	Y2	Z2	X3	Y3	Z3	X4	Y4	Z4	X5	Y5	Z5	X6	Y6	Z6	X7	Y7	Z7	X8	Y8	Z8	X9	Y9	Z9	X10	Y10	Z10	X11	Y11	Z11	X12	Y12	Z12	X13	Y13	Z13	X14	Y14	Z14	X15	Y15	Z15	X16	Y16	Z16	X17	Y17	Z17	X18	Y18	Z18	X19	Y19	Z19	X20	Y20	Z20	X21	Y21	Z21
8	0.2999999999999987	0.5388141391601153	-0.0038895868611356077	-0.11257836934033641	0.5205244140608793	-0.011147197416250143	-0.12444483658314576	0.491599576256755	-0.018791611318096257	-0.11585782929874411	0.47950041704410185	-0.02887470252372837	-0.07412257300282835	0.49706798966755983	-0.0025391426324383737	-0.11513967445117479	0.5141930660577695	-0.002990465612014659	-0.12101573318110506	0.5281026314165945	0.017529936028165882	-0.12519268674252426	0.49163624260280625	0.03230471587147743	-0.10889715172635214	0.4984098687803886	-0.014726996017485616	-0.1007649419067824	0.5162809304579438	-0.011988593434808847	-0.09970366634774669	0.5371827182708498	0.008211361966978026	-0.10182183017287222	0.5053715190398588	0.036251180528776406	-0.08775185861968038	0.5052053903380737	-0.005055726477452005	-0.08924167625416599	0.5181069024771092	-0.014209372052173319	-0.0805951881104914	0.5394229947374076	-0.0013487505792286747	-0.08123441035672521	0.5188559027909935	0.031134494153668202	-0.06872224130054339	0.5055973835744498	-0.023028866778759705	-0.05800255067207144	0.5204081202945202	-0.029233190598041636	-0.06393116296789986	0.5382189761048701	-0.018137031299671813	-0.06325242654768715	0.5265622699012915	0.01333422916723237	-0.050040143773399964	0.4622830810018609	-0.023011742144276925	-0.051989820119430985
9	0.33333333333333187	0.5387136594564448	-0.0037266432513650694	-0.1126597928631741	0.5203937396043201	-0.010940230710958843	-0.12450650939453928	0.491486460190225	-0.01862699386614597	-0.11589820706065837	0.4794568249243114	-0.02882248432123513	-0.07417016073987709	0.4969621183222881	-0.002417971895571247	-0.11512851719780823	0.5140735978315047	-0.00281393898679827	-0.12104801709799651	0.527962552272348	0.017720259032074637	-0.12522575443558712	0.4915196576940697	0.03243855262932138	-0.10882687147540529	0.4983361249981523	-0.014676243156563351	-0.10080375436919153	0.5161937531872832	-0.011856196878266334	-0.09973023005785908	0.5370907930720866	0.00834645134417944	-0.10186945394821034	0.5052933285464759	0.036345998431545845	-0.08768867351676404	0.5046037769688515	-0.005299009060659943	-0.08870497469546734	0.5181048868231655	-0.014107783738832924	-0.08063493619674106	0.5393985491251566	-0.0012102735582144586	-0.0812784856584034	0.5187871610431176	0.031215807776459714	-0.0686911601041531	0.5056383350680594	-0.023000130495364313	-0.05809609423786821	0.5204716514025703	-0.0291472154761675	-0.06402787919343708	0.5382532717195961	-0.018005636472064324	-0.06332701173345273	0.5265176170588409	0.013414276878567666	-0.05006251378885354	0.4622830810018608	-0.023011742144276925	-0.05198982011943101
10	0.3666666666666651	0.5385602746478484	-0.0034449753759430157	-0.11275364587415518	0.5202383134825059	-0.010631192666172296	-0.12461383221810843	0.49137427521039423	-0.018401512796440644	-0.11593573221296816	0.479418811635697	-0.02873881967346037	-0.0742212625741916	0.4968333456093016	-0.002303799612943913	-0.1151132149624795	0.5139313543906556	-0.0025788173956444727	-0.1210783185602333	0.5277483548422037	0.018005583203376974	-0.12524758510255518	0.49131291693288937	0.032628517504301846	-0.10874713811505435	0.4982702382195858	-0.014536358171913344	-0.10087003423957885	0.5161101513049923	-0.011618045208853234	-0.0997650679257126	0.536955157429038	0.008633774194456878	-0.1019465996225282	0.5051136839693533	0.03651254624888489	-0.0876272924586517	0.5039038354070442	-0.005607465720935845	-0.08805986182621309	0.5181052908409352	-0.013916630215485726	-0.08069260664115807	0.5393531417481866	-0.00094375309788719	-0.08133546752416804	0.5186325271646173	0.0313826013546773	-0.06867119600598207	0.5057264451041988	-0.022873132258305007	-0.058191318468698516	0.5205609683261743	-0.028988763648622573	-0.06415252417513334	0.538285459091135	-0.01775837223180543	-0.0634226236696501	0.5264199711622091	0.013587858123061514	-0.05009942999290218	0.4622830810018609	-0.023011742144276925	-0.051989820119430985
11	0.39999999999999825	0.5384121183642637	-0.003059321257298575	-0.11282591001622408	0.5200917236956158	-0.01024724895991036	-0.12468747966475738	0.4912697478454916	-0.01812683635432366	-0.11596820156455559	0.47938606991659993	-0.028629054398962683	-0.07427441767504481	0.49670850152519763	-0.0021146369339617443	-0.11507789879323294	0.513788434747957	-0.0022844892413744766	-0.12109844954044433	0.52749939489953	0.018374390678939756	-0.12524936331454406	0.4910598150552433	0.03286604343933808	-0.10864258412519198	0.49822590265532984	-0.01432141474401416	-0.10090240373853188	0.5160463343535495	-0.01129224053484057	-0.09978154794960625	0.5368039894139767	0.009042846445952435	-0.10202064238171596	0.5048722858224449	0.03673589251324638	-0.08754274798172473	0.5031253294516744	-0.005943482791781585	-0.08716647091028876	0.5181126271110899	-0.013635382176716448	-0.08074653378286106	0.5392993717352835	-0.0005629356219062354	-0.08138916299230353	0.5184171414502181	0.03161931794255102	-0.06862374690686085	0.5058283261182287	-0.02274159719040414	-0.05829818569125811	0.5206959160136538	-0.028753957663520513	-0.06428202160501467	0.5383310685139601	-0.017386531080255896	-0.06351064091752406	0.5262674753278345	0.013854813662875887	-0.05011916791861709	0.4622830810018608	-0.023011742144276925	-0.051989820119430985
12	0.43333333333333146	0.538283610938636	-0.002622881685426348	-0.11284629546357577	0.5199674432883723	-0.009821992961132064	-0.12470761071305114	0.49118312498028127	-0.017842446620102148	-0.11599237447742261	0.47936245837840596	-0.028509020439619337	-0.07432240874621393	0.4965634024570549	-0.0018658242221271104	-0.11502452730573914	0.5136347788470282	-0.001955446020207585	-0.12107102018055257	0.5272454475286752	0.018768621094271132	-0.1252270487262943	0.49079242094413744	0.03311912803366701	-0.10852747096488552	0.49819097391649103	-0.01405090744595705	-0.10087567066829206	0.5159994438261872	-0.010938360810898495	-0.0997937959435529	0.5366548269434439	0.009495692586258375	-0.10207724947745592	0.5046142091898724	0.03697907295098701	-0.08744131634365238	0.5025856007416395	-0.006263818728899362	-0.08656740244486885	0.5181390369450252	-0.013324674792020264	-0.08080242769010149	0.5392544839531274	-0.00013680661140014205	-0.08143330763003875	0.5181840615420076	0.031878063828692405	-0.0685567318382736	0.5059153316794957	-0.022578585332509005	-0.05840944289172387	0.5208316246263056	-0.028459486574097026	-0.0644027062191303	0.5383845448505384	-0.016968464455382137	-0.06358819945493335	0.5260968604011015	0.014149011300891967	-0.050112333455719665	0.4622830810018608	-0.023011742144276925	-0.051989820119430985
13	0.4666666666666647	0.5381860938022882	-0.002145525581724872	-0.11285197170179873	0.5198887842594575	-0.009379720779994605	-0.12472104425727515	0.4911450642178794	-0.017531622123323487	-0.11599378451208525	0.4793459968611654	-0.0283833629022886	-0.074365528103993	0.49642453368778994	-0.0015914791760377467	-0.11496950034275241	0.5134856307183019	-0.0016061768756937544	-0.1210455806658785	0.5270030192074745	0.019185519239497073	-0.12516813013026953	0.4905326178473606	0.033393395959739114	-0.10838474079037103	0.4981752902108435	-0.013748864547614481	-0.10089837110260963	0.5159692218110108	-0.01055997396275321	-0.09979974694196633	0.5365126472088873	0.009983505016125105	-0.10211117385326496	0.5043496488903995	0.037238111860316225	-0.08731671996224469	0.5020054845120944	-0.00665389529263094	-0.08576750528485	0.5181419419491275	-0.013001336305225819	-0.08083549413579053	0.5391962428456816	0.0002843551248269405	-0.08145742337838549	0.5179532881345514	0.032138917616119644	-0.06846725180025745	0.5059988211746216	-0.022365662760000737	-0.05851544201069489	0.5209470827430553	-0.0281652309436764	-0.06450831152075287	0.5384270495433842	-0.016565888680153185	-0.06366093987085553	0.5259317043127814	0.014430415837199617	-0.05009705750496976	0.4622830810018609	-0.023011742144276925	-0.05198982011943096
